<svg width="54" height="54" viewBox="0 0 54 54" fill="none" xmlns="http://www.w3.org/2000/svg">
<path d="M31.5925 21.0559C31.6503 20.2291 32.0342 19.4591 32.6597 18.9154C33.2852 18.3716 34.1011 18.0987 34.9279 18.1565C35.7547 18.2143 36.5246 18.5982 37.0684 19.2237C37.6121 19.8492 37.8851 20.6651 37.8273 21.4918C37.7695 22.3186 37.3856 23.0886 36.7601 23.6323C36.1346 24.1761 35.3187 24.4491 34.4919 24.3912C33.6651 24.3334 32.8952 23.9495 32.3514 23.324C31.8077 22.6985 31.5347 21.8827 31.5925 21.0559Z" fill="#969696"/>
<path fill-rule="evenodd" clip-rule="evenodd" d="M18.2327 11.0537C24.817 10.943 31.3985 11.4032 37.9034 12.4292L41.0224 12.923C42.4722 13.1528 43.8026 13.8634 44.7996 14.9407C45.7966 16.0181 46.4023 17.3994 46.5194 18.8626C47.0236 25.1973 46.5779 31.5718 45.1969 37.7748C44.8774 39.2074 44.0853 40.491 42.948 41.4191C41.8108 42.3472 40.3944 42.8658 38.9268 42.8915L35.7696 42.9443C29.1832 43.056 22.6035 42.5959 16.0988 41.5688L12.9797 41.0771C11.5295 40.8478 10.1986 40.1373 9.20119 39.0599C8.20375 37.9825 7.59773 36.6009 7.48065 35.1374C6.97641 28.8026 7.42216 22.4281 8.80312 16.2252C9.12263 14.7925 9.91471 13.5089 11.052 12.5809C12.1892 11.6528 13.6056 11.1342 15.0732 11.1085L18.2327 11.0537ZM37.4159 15.5173C31.0893 14.5173 24.6877 14.0697 18.2835 14.1795L15.1263 14.2323C14.3607 14.2464 13.622 14.5172 13.0288 15.0014C12.4356 15.4856 12.0222 16.155 11.855 16.9023C11.0709 20.4199 10.6032 24.0006 10.4573 27.6017L19.065 20.1172C19.2256 19.9778 19.413 19.8727 19.6157 19.8082C19.8184 19.7438 20.0321 19.7214 20.2438 19.7425C20.4554 19.7635 20.6605 19.8276 20.8465 19.9307C21.0326 20.0338 21.1956 20.1738 21.3256 20.3421L28.3568 29.459L33.7374 28.0726C34.0324 27.9962 34.3433 28.0078 34.6318 28.1059C34.9203 28.204 35.1739 28.3844 35.3612 28.6247L42.1064 37.2621L42.1471 37.0979C43.4609 31.1976 43.8849 25.1341 43.405 19.1085C43.3434 18.3449 43.0269 17.6242 42.5064 17.0621C41.9859 16.5 41.2917 16.1291 40.5351 16.009L37.4159 15.5173ZM39.946 39.5754L33.5267 31.3555L28.1377 32.7413C27.8415 32.8177 27.5294 32.8054 27.2401 32.7061C26.9508 32.6068 26.697 32.4248 26.5102 32.1826L19.8641 23.5626L10.4273 31.7639C10.456 32.8073 10.5119 33.8492 10.5951 34.8894C10.6563 35.6534 10.9726 36.3745 11.4931 36.937C12.0136 37.4995 12.708 37.8707 13.4649 37.9909L16.5841 38.4826C22.9111 39.4806 29.3121 39.9282 35.7165 39.8205L38.8737 39.7677C39.246 39.7603 39.6098 39.6939 39.946 39.5754Z" fill="#969696"/>
</svg>
